<?xml version="1.0" encoding="UTF-8"?>
<svg width="284px" height="68px" viewBox="0 0 284 68" version="1.1" xmlns="http://www.w3.org/2000/svg" xmlns:xlink="http://www.w3.org/1999/xlink">
    <!-- Generator: Sketch 63.1 (92452) - https://sketch.com -->
    <title>TINKLE LOGO</title>
    <desc>Created with Sketch.</desc>
    <g id="TINKLE-LOGO" stroke="none" stroke-width="1" fill="none" fill-rule="evenodd">
        <polyline id="Fill-1" fill="#B6D144" points="77.013 1.858 68.664 1.858 68.664 66.495 78.077 66.495 78.077 1.858 77.013 1.858"></polyline>
        <polyline id="Fill-2" fill="#B6D144" points="59.863 29.027 35.045 29.027 35.045 1.858 25.633 1.858 25.633 29.027 0.815 29.027 0.815 39.328 25.633 39.328 25.633 66.495 35.045 66.495 35.045 39.328 59.863 39.328 59.863 29.027"></polyline>
        <polyline id="Fill-3" fill="#B6D144" points="195.964 56.194 195.964 1.996 186.551 1.996 186.551 66.495 224.043 66.495 224.043 56.194 195.964 56.194"></polyline>
        <path d="M279.16,16.758 C275.034,8.882 265.949,0.383 252.88,0.264 C235.978,0.613 222.253,15.851 222.253,34.235 C222.253,52.842 236.031,67.975 252.973,67.975 C266.002,67.975 277.653,58.874 281.97,45.327 L282.461,43.779 L272.521,43.779 L272.269,44.541 C270.159,50.816 263.809,58.231 252.849,58.472 C242.554,58.472 233.088,49.152 231.985,38.247 C234.232,38.247 283.636,38.247 283.636,38.247 L283.694,37.148 C283.733,36.369 283.751,35.598 283.751,34.834 C283.751,28.154 282.213,22.082 279.16,16.758 Z M273.926,28.743 C271.515,28.743 234.48,28.743 232.109,28.743 C234.546,15.732 244.482,9.767 252.973,9.767 C261.375,9.767 271.303,15.732 273.926,28.743 L273.926,28.743 Z" id="Fill-4" fill="#B6D144"></path>
        <path d="M132.744,8.227 C127.718,2.724 121.933,0.264 114,0.264 C114,0.264 114,0.264 113.998,0.264 C113.996,0.264 113.996,0.264 113.996,0.264 C106.063,0.264 100.277,2.724 95.252,8.227 C90.41,13.394 87.853,21.287 87.853,31.045 L87.853,66.495 L97.266,66.495 L97.266,31.045 C97.266,24.038 99.07,18.267 102.354,14.791 C106.728,10.129 112.369,9.767 113.996,9.767 C113.996,9.767 113.996,9.767 113.998,9.767 C114,9.767 114,9.767 114,9.767 C115.627,9.767 121.268,10.129 125.642,14.791 C128.926,18.267 130.73,24.038 130.73,31.045 L130.73,66.495 L140.143,66.495 L140.143,31.045 C140.143,21.287 137.586,13.394 132.744,8.227" id="Fill-5" fill="#B6D144"></path>
        <polyline id="Fill-6" fill="#B6D144" points="155.381 33.82 180.515 1.763 170.203 1.763 145.062 33.82 170.686 66.495 181.003 66.495 155.381 33.82"></polyline>
    </g>
</svg>